# xmcd
#
# Track frame offsets:
# 150
# 14863
# 28818
# 43904
# 54780
# 69021
# 79746
# 98922
# 112715
# 122606
# 135906
# 149535
#
# Disc length: 2165 seconds
#
#
# Revision: 0
# Processed by: cddbd v1.5.1PL2 Copyright (c) Steve Scherf et al.
# Submitted via: FreeRIP 2.943 
#
DISCID=9908730c
DTITLE=Milionário and José Rico - Volume 3
DYEAR=1900
DGENRE=Country
TTITLE0=Livro da Vida
TTITLE1=A Fossa
TTITLE2=Todos Têm o Mesmo Fim
TTITLE3=Meu Desespero
TTITLE4=Nossa Casa
TTITLE5=Quem Vai Te Deixar Sou Eu
TTITLE6=Sonho Alto
TTITLE7=O Nosso Filho
TTITLE8=O Preço de Um Pecado
TTITLE9=Cinzeiro Cheio
TTITLE10=Vá Para o Inferno Com o Seu Amor
TTITLE11=Mundo Cruel
EXTD=
EXTT0=
EXTT1=
EXTT2=
EXTT3=
EXTT4=
EXTT5=
EXTT6=
EXTT7=
EXTT8=
EXTT9=
EXTT10=
EXTT11=
PLAYORDER=
